name Walk9.mot
datacolumns 19
datarows 17
range 1.75800000 1.77400000
endheader

                time	   L_ground_force_vx	   L_ground_force_vy	   L_ground_force_vz	   L_ground_force_px	   L_ground_force_py	   L_ground_force_pz	   R_ground_force_vx	   R_ground_force_vy	   R_ground_force_vz	   R_ground_force_px	   R_ground_force_py	   R_ground_force_pz	   L_ground_torque_x	   L_ground_torque_y	   L_ground_torque_z	   R_ground_torque_x	   R_ground_torque_y	   R_ground_torque_z	
          1.75800000	         -6.98716385	        520.99272770	         36.57743696	          0.40480012	          0.00000000	          0.21091309	          0.00000000	          0.00000000	          0.00000000	          0.00000000	          0.00000000	          0.00000000	          0.00000000	         -3.03423277	          0.00000000	          0.00000000	          0.00000000	          0.00000000	
          1.75900000	         -6.50846051	        520.08502962	         36.77612212	          0.40520919	          0.00000000	          0.21077209	          0.00000000	          0.00000000	          0.00000000	          0.00000000	          0.00000000	          0.00000000	          0.00000000	         -3.05803610	          0.00000000	          0.00000000	          0.00000000	          0.00000000	
          1.76000000	         -6.02617233	        519.21686841	         36.99369525	          0.40556343	          0.00000000	          0.21067244	          0.00000000	          0.00000000	          0.00000000	          0.00000000	          0.00000000	          0.00000000	          0.00000000	         -3.07854221	          0.00000000	          0.00000000	          0.00000000	          0.00000000	
          1.76100000	         -5.52688592	        518.34702091	         37.23895133	          0.40585994	          0.00000000	          0.21059931	          0.00000000	          0.00000000	          0.00000000	          0.00000000	          0.00000000	          0.00000000	          0.00000000	         -3.09494200	          0.00000000	          0.00000000	          0.00000000	          0.00000000	
          1.76200000	         -4.99958782	        517.46196703	         37.50304014	          0.40612416	          0.00000000	          0.21054694	          0.00000000	          0.00000000	          0.00000000	          0.00000000	          0.00000000	          0.00000000	          0.00000000	         -3.10421187	          0.00000000	          0.00000000	          0.00000000	          0.00000000	
          1.76300000	         -4.44516538	        516.60848266	         37.76132613	          0.40639640	          0.00000000	          0.21052708	          0.00000000	          0.00000000	          0.00000000	          0.00000000	          0.00000000	          0.00000000	          0.00000000	         -3.10304415	          0.00000000	          0.00000000	          0.00000000	          0.00000000	
          1.76400000	         -3.87608704	        515.86869624	         37.99342909	          0.40671776	          0.00000000	          0.21056467	          0.00000000	          0.00000000	          0.00000000	          0.00000000	          0.00000000	          0.00000000	          0.00000000	         -3.08984451	          0.00000000	          0.00000000	          0.00000000	          0.00000000	
          1.76500000	         -3.30567656	        515.28463221	         38.19660017	          0.40710040	          0.00000000	          0.21066306	          0.00000000	          0.00000000	          0.00000000	          0.00000000	          0.00000000	          0.00000000	          0.00000000	         -3.06845066	          0.00000000	          0.00000000	          0.00000000	          0.00000000	
          1.76600000	         -2.74035367	        514.84118601	         38.37839411	          0.40751471	          0.00000000	          0.21077943	          0.00000000	          0.00000000	          0.00000000	          0.00000000	          0.00000000	          0.00000000	          0.00000000	         -3.04923121	          0.00000000	          0.00000000	          0.00000000	          0.00000000	
          1.76700000	         -2.18185955	        514.50684763	         38.54256626	          0.40793361	          0.00000000	          0.21085782	          0.00000000	          0.00000000	          0.00000000	          0.00000000	          0.00000000	          0.00000000	          0.00000000	         -3.04178699	          0.00000000	          0.00000000	          0.00000000	          0.00000000	
          1.76800000	         -1.63402504	        514.23886982	         38.68593052	          0.40836871	          0.00000000	          0.21086742	          0.00000000	          0.00000000	          0.00000000	          0.00000000	          0.00000000	          0.00000000	          0.00000000	         -3.04867837	          0.00000000	          0.00000000	          0.00000000	          0.00000000	
          1.76900000	         -1.10220865	        513.99807095	         38.80853540	          0.40884816	          0.00000000	          0.21080546	          0.00000000	          0.00000000	          0.00000000	          0.00000000	          0.00000000	          0.00000000	          0.00000000	         -3.06818526	          0.00000000	          0.00000000	          0.00000000	          0.00000000	
          1.77000000	         -0.58797756	        513.80042381	         38.92219706	          0.40937768	          0.00000000	          0.21068788	          0.00000000	          0.00000000	          0.00000000	          0.00000000	          0.00000000	          0.00000000	          0.00000000	         -3.09826301	          0.00000000	          0.00000000	          0.00000000	          0.00000000	
          1.77100000	         -0.09226708	        513.68839826	         39.04200267	          0.40993231	          0.00000000	          0.21053953	          0.00000000	          0.00000000	          0.00000000	          0.00000000	          0.00000000	          0.00000000	          0.00000000	         -3.13557480	          0.00000000	          0.00000000	          0.00000000	          0.00000000	
          1.77200000	          0.37856388	        513.65139634	         39.17087576	          0.41047483	          0.00000000	          0.21039291	          0.00000000	          0.00000000	          0.00000000	          0.00000000	          0.00000000	          0.00000000	          0.00000000	         -3.17496391	          0.00000000	          0.00000000	          0.00000000	          0.00000000	
          1.77300000	          0.81956304	        513.64295710	         39.29601396	          0.41096914	          0.00000000	          0.21028527	          0.00000000	          0.00000000	          0.00000000	          0.00000000	          0.00000000	          0.00000000	          0.00000000	         -3.21097566	          0.00000000	          0.00000000	          0.00000000	          0.00000000	
          1.77400000	          1.23599348	        513.66632604	         39.39836871	          0.41139418	          0.00000000	          0.21023923	          0.00000000	          0.00000000	          0.00000000	          0.00000000	          0.00000000	          0.00000000	          0.00000000	         -3.23915356	          0.00000000	          0.00000000	          0.00000000	          0.00000000	
